<svg xmlns="http://www.w3.org/2000/svg" width="773" height="213" viewBox="0 0 773 213" role="img" aria-labelledby="title">
  <title id="title">AI token usage heatmap</title>
  <style>text{font-family:-apple-system, "Segoe UI", sans-serif;font-size:10px;fill:#8d96a0}</style>
  <text x="30" y="16" font-size="11" font-weight="600" fill="#e6edf3">AI token usage</text>
  <g>
    <title>claude</title>
    <path d="m4.7144 15.9555 4.7174-2.6471.079-.2307-.079-.1275h-.2307l-.7893-.0486-2.6956-.0729-2.3375-.0971-2.2646-.1214-.5707-.1215-.5343-.7042.0546-.3522.4797-.3218.686.0608 1.5179.1032 2.2767.1578 1.6514.0972 2.4468.255h.3886l.0546-.1579-.1336-.0971-.1032-.0972L6.973 9.8356l-2.55-1.6879-1.3356-.9714-.7225-.4918-.3643-.4614-.1578-1.0078.6557-.7225.8803.0607.2246.0607.8925.686 1.9064 1.4754 2.4893 1.8336.3643.3035.1457-.1032.0182-.0728-.164-.2733-1.3539-2.4467-1.445-2.4893-.6435-1.032-.17-.6194c-.0607-.255-.1032-.4674-.1032-.7285L6.287.1335 6.6997 0l.9957.1336.419.3642.6192 1.4147 1.0018 2.2282 1.5543 3.0296.4553.8985.2429.8318.091.255h.1579v-.1457l.1275-1.706.2368-2.0947.2307-2.6957.0789-.7589.3764-.9107.7468-.4918.5828.2793.4797.686-.0668.4433-.2853 1.8517-.5586 2.9021-.3643 1.9429h.2125l.2429-.2429.9835-1.3053 1.6514-2.0643.7286-.8196.85-.9046.5464-.4311h1.0321l.759 1.1293-.34 1.1657-1.0625 1.3478-.8804 1.1414-1.2628 1.7-.7893 1.36.0729.1093.1882-.0183 2.8535-.607 1.5421-.2794 1.8396-.3157.8318.3886.091.3946-.3278.8075-1.967.4857-2.3072.4614-3.4364.8136-.0425.0304.0486.0607 1.5482.1457.6618.0364h1.621l3.0175.2247.7892.522.4736.6376-.079.4857-1.2142.6193-1.6393-.3886-3.825-.9107-1.3113-.3279h-.1822v.1093l1.0929 1.0686 2.0035 1.8092 2.5075 2.3314.1275.5768-.3218.4554-.34-.0486-2.2039-1.6575-.85-.7468-1.9246-1.621h-.1275v.17l.4432.6496 2.3436 3.5214.1214 1.0807-.17.3521-.6071.2125-.6679-.1214-1.3721-1.9246L14.38 17.959l-1.1414-1.9428-.1397.079-.674 7.2552-.3156.3703-.7286.2793-.6071-.4614-.3218-.7468.3218-1.4753.3886-1.9246.3157-1.53.2853-1.9004.17-.6314-.0121-.0425-.1397.0182-1.4328 1.9672-2.1796 2.9446-1.7243 1.8456-.4128.164-.7164-.3704.0667-.6618.4008-.5889 2.386-3.0357 1.4389-1.882.929-1.0868-.0062-.1579h-.0546l-6.3385 4.1164-1.1293.1457-.4857-.4554.0608-.7467.2307-.2429 1.9064-1.3114Z" fill="#8d96a0" transform="translate(475 3) scale(0.583)"/>
    <text x="493" y="16" font-size="10" fill="#8d96a0">3.8B</text>
  </g>
  <g>
    <title>codex</title>
    <path d="M22.2819 9.8211a5.9847 5.9847 0 0 0-.5157-4.9108 6.0462 6.0462 0 0 0-6.5098-2.9A6.0651 6.0651 0 0 0 4.9807 4.1818a5.9847 5.9847 0 0 0-3.9977 2.9 6.0462 6.0462 0 0 0 .7427 7.0966 5.98 5.98 0 0 0 .511 4.9107 6.051 6.051 0 0 0 6.5146 2.9001A5.9847 5.9847 0 0 0 13.2599 24a6.0557 6.0557 0 0 0 5.7718-4.2058 5.9894 5.9894 0 0 0 3.9977-2.9001 6.0557 6.0557 0 0 0-.7475-7.0729zm-9.022 12.6081a4.4755 4.4755 0 0 1-2.8764-1.0408l.1419-.0804 4.7783-2.7582a.7948.7948 0 0 0 .3927-.6813v-6.7369l2.02 1.1686a.071.071 0 0 1 .038.052v5.5826a4.504 4.504 0 0 1-4.4945 4.4944zm-9.6607-4.1254a4.4708 4.4708 0 0 1-.5346-3.0137l.142.0852 4.783 2.7582a.7712.7712 0 0 0 .7806 0l5.8428-3.3685v2.3324a.0804.0804 0 0 1-.0332.0615L9.74 19.9502a4.4992 4.4992 0 0 1-6.1408-1.6464zM2.3408 7.8956a4.485 4.485 0 0 1 2.3655-1.9728V11.6a.7664.7664 0 0 0 .3879.6765l5.8144 3.3543-2.0201 1.1685a.0757.0757 0 0 1-.071 0l-4.8303-2.7865A4.504 4.504 0 0 1 2.3408 7.872zm16.5963 3.8558L13.1038 8.364 15.1192 7.2a.0757.0757 0 0 1 .071 0l4.8303 2.7913a4.4944 4.4944 0 0 1-.6765 8.1042v-5.6772a.79.79 0 0 0-.407-.667zm2.0107-3.0231l-.142-.0852-4.7735-2.7818a.7759.7759 0 0 0-.7854 0L9.409 9.2297V6.8974a.0662.0662 0 0 1 .0284-.0615l4.8303-2.7866a4.4992 4.4992 0 0 1 6.6802 4.66zM8.3065 12.863l-2.02-1.1638a.0804.0804 0 0 1-.038-.0567V6.0742a4.4992 4.4992 0 0 1 7.3757-3.4537l-.142.0805L8.704 5.459a.7948.7948 0 0 0-.3927.6813zm1.0976-2.3654l2.602-1.4998 2.6069 1.4998v2.9994l-2.5974 1.4997-2.6067-1.4997Z" fill="#8d96a0" transform="translate(531.4 3) scale(0.583)"/>
    <text x="549.4" y="16" font-size="10" fill="#8d96a0">401.7M</text>
  </g>
  <g>
    <title>cursor</title>
    <path d="M11.503.131 1.891 5.678a.84.84 0 0 0-.42.726v11.188c0 .3.162.575.42.724l9.609 5.55a1 1 0 0 0 .998 0l9.61-5.55a.84.84 0 0 0 .42-.724V6.404a.84.84 0 0 0-.42-.726L12.497.131a1.01 1.01 0 0 0-.996 0M2.657 6.338h18.55c.263 0 .43.287.297.515L12.23 22.918c-.062.107-.229.064-.229-.06V12.335a.59.59 0 0 0-.295-.51l-9.11-5.257c-.109-.063-.064-.23.061-.23" fill="#8d96a0" transform="translate(599 3) scale(0.583)"/>
    <text x="617" y="16" font-size="10" fill="#8d96a0">146.9M</text>
  </g>
  <g>
    <title>opencode</title>
    <path d="M22 24H2V0h20zM17 4.8H7v14.4h10z" fill="#8d96a0" transform="translate(666.6 3) scale(0.583)"/>
    <text x="684.6" y="16" font-size="10" fill="#8d96a0">60.5M</text>
  </g>
  <g>
    <title>openclaw</title>
    <circle cx="735.6" cy="10" r="7" fill="#8d96a0" fill-opacity="0.25"/><text x="735.6" y="13" font-size="8" font-weight="700" fill="#e6edf3" text-anchor="middle">O</text>
    <text x="746.6" y="16" font-size="10" fill="#8d96a0">2.5M</text>
  </g>
  <g>
    <text x="30" y="38" font-size="8.5" letter-spacing="0.08em" fill="#8d96a0">ALL TIME</text>
    <text x="30" y="57" font-size="17" font-weight="700" fill="#e6edf3">4.4B</text>
  </g>
  <g>
    <text x="177.8" y="38" font-size="8.5" letter-spacing="0.08em" fill="#8d96a0">LAST 30 DAYS</text>
    <text x="177.8" y="57" font-size="17" font-weight="700" fill="#e6edf3">3.2B</text>
  </g>
  <g>
    <text x="325.6" y="38" font-size="8.5" letter-spacing="0.08em" fill="#8d96a0">LAST 7 DAYS</text>
    <text x="325.6" y="57" font-size="17" font-weight="700" fill="#e6edf3">922.6M</text>
  </g>
  <g>
    <text x="473.4" y="38" font-size="8.5" letter-spacing="0.08em" fill="#8d96a0">TODAY</text>
    <text x="473.4" y="57" font-size="17" font-weight="700" fill="#e6edf3">59M</text>
  </g>
  <g>
    <text x="621.2" y="38" font-size="8.5" letter-spacing="0.08em" fill="#8d96a0">ACTIVE DAYS</text>
    <text x="621.2" y="57" font-size="17" font-weight="700" fill="#e6edf3">149</text>
  </g>
  <text x="58" y="86">Aug</text>
  <text x="128" y="86">Sep</text>
  <text x="184" y="86">Oct</text>
  <text x="240" y="86">Nov</text>
  <text x="310" y="86">Dec</text>
  <text x="366" y="86">Jan</text>
  <text x="436" y="86">Feb</text>
  <text x="492" y="86">Mar</text>
  <text x="548" y="86">Apr</text>
  <text x="604" y="86">May</text>
  <text x="674" y="86">Jun</text>
  <text x="730" y="86">Jul</text>
  <text x="0" y="117">Mon</text>
  <text x="0" y="145">Wed</text>
  <text x="0" y="173">Fri</text>
  <rect x="30" y="94" width="11" height="11" rx="2" fill="#0e4429" data-date="2025-07-13" data-level="1"/>
  <rect x="30" y="108" width="11" height="11" rx="2" fill="#161b22" data-date="2025-07-14" data-level="0"/>
  <rect x="30" y="122" width="11" height="11" rx="2" fill="#161b22" data-date="2025-07-15" data-level="0"/>
  <rect x="30" y="136" width="11" height="11" rx="2" fill="#006d32" data-date="2025-07-16" data-level="2"/>
  <rect x="30" y="150" width="11" height="11" rx="2" fill="#26a641" data-date="2025-07-17" data-level="3"/>
  <rect x="30" y="164" width="11" height="11" rx="2" fill="#161b22" data-date="2025-07-18" data-level="0"/>
  <rect x="30" y="178" width="11" height="11" rx="2" fill="#161b22" data-date="2025-07-19" data-level="0"/>
  <rect x="44" y="94" width="11" height="11" rx="2" fill="#161b22" data-date="2025-07-20" data-level="0"/>
  <rect x="44" y="108" width="11" height="11" rx="2" fill="#161b22" data-date="2025-07-21" data-level="0"/>
  <rect x="44" y="122" width="11" height="11" rx="2" fill="#161b22" data-date="2025-07-22" data-level="0"/>
  <rect x="44" y="136" width="11" height="11" rx="2" fill="#0e4429" data-date="2025-07-23" data-level="1"/>
  <rect x="44" y="150" width="11" height="11" rx="2" fill="#161b22" data-date="2025-07-24" data-level="0"/>
  <rect x="44" y="164" width="11" height="11" rx="2" fill="#0e4429" data-date="2025-07-25" data-level="1"/>
  <rect x="44" y="178" width="11" height="11" rx="2" fill="#161b22" data-date="2025-07-26" data-level="0"/>
  <rect x="58" y="94" width="11" height="11" rx="2" fill="#161b22" data-date="2025-07-27" data-level="0"/>
  <rect x="58" y="108" width="11" height="11" rx="2" fill="#0e4429" data-date="2025-07-28" data-level="1"/>
  <rect x="58" y="122" width="11" height="11" rx="2" fill="#006d32" data-date="2025-07-29" data-level="2"/>
  <rect x="58" y="136" width="11" height="11" rx="2" fill="#161b22" data-date="2025-07-30" data-level="0"/>
  <rect x="58" y="150" width="11" height="11" rx="2" fill="#161b22" data-date="2025-07-31" data-level="0"/>
  <rect x="58" y="164" width="11" height="11" rx="2" fill="#161b22" data-date="2025-08-01" data-level="0"/>
  <rect x="58" y="178" width="11" height="11" rx="2" fill="#161b22" data-date="2025-08-02" data-level="0"/>
  <rect x="72" y="94" width="11" height="11" rx="2" fill="#161b22" data-date="2025-08-03" data-level="0"/>
  <rect x="72" y="108" width="11" height="11" rx="2" fill="#0e4429" data-date="2025-08-04" data-level="1"/>
  <rect x="72" y="122" width="11" height="11" rx="2" fill="#161b22" data-date="2025-08-05" data-level="0"/>
  <rect x="72" y="136" width="11" height="11" rx="2" fill="#0e4429" data-date="2025-08-06" data-level="1"/>
  <rect x="72" y="150" width="11" height="11" rx="2" fill="#161b22" data-date="2025-08-07" data-level="0"/>
  <rect x="72" y="164" width="11" height="11" rx="2" fill="#161b22" data-date="2025-08-08" data-level="0"/>
  <rect x="72" y="178" width="11" height="11" rx="2" fill="#161b22" data-date="2025-08-09" data-level="0"/>
  <rect x="86" y="94" width="11" height="11" rx="2" fill="#161b22" data-date="2025-08-10" data-level="0"/>
  <rect x="86" y="108" width="11" height="11" rx="2" fill="#161b22" data-date="2025-08-11" data-level="0"/>
  <rect x="86" y="122" width="11" height="11" rx="2" fill="#161b22" data-date="2025-08-12" data-level="0"/>
  <rect x="86" y="136" width="11" height="11" rx="2" fill="#0e4429" data-date="2025-08-13" data-level="1"/>
  <rect x="86" y="150" width="11" height="11" rx="2" fill="#161b22" data-date="2025-08-14" data-level="0"/>
  <rect x="86" y="164" width="11" height="11" rx="2" fill="#161b22" data-date="2025-08-15" data-level="0"/>
  <rect x="86" y="178" width="11" height="11" rx="2" fill="#161b22" data-date="2025-08-16" data-level="0"/>
  <rect x="100" y="94" width="11" height="11" rx="2" fill="#161b22" data-date="2025-08-17" data-level="0"/>
  <rect x="100" y="108" width="11" height="11" rx="2" fill="#161b22" data-date="2025-08-18" data-level="0"/>
  <rect x="100" y="122" width="11" height="11" rx="2" fill="#161b22" data-date="2025-08-19" data-level="0"/>
  <rect x="100" y="136" width="11" height="11" rx="2" fill="#161b22" data-date="2025-08-20" data-level="0"/>
  <rect x="100" y="150" width="11" height="11" rx="2" fill="#006d32" data-date="2025-08-21" data-level="2"/>
  <rect x="100" y="164" width="11" height="11" rx="2" fill="#0e4429" data-date="2025-08-22" data-level="1"/>
  <rect x="100" y="178" width="11" height="11" rx="2" fill="#161b22" data-date="2025-08-23" data-level="0"/>
  <rect x="114" y="94" width="11" height="11" rx="2" fill="#26a641" data-date="2025-08-24" data-level="3"/>
  <rect x="114" y="108" width="11" height="11" rx="2" fill="#0e4429" data-date="2025-08-25" data-level="1"/>
  <rect x="114" y="122" width="11" height="11" rx="2" fill="#006d32" data-date="2025-08-26" data-level="2"/>
  <rect x="114" y="136" width="11" height="11" rx="2" fill="#006d32" data-date="2025-08-27" data-level="2"/>
  <rect x="114" y="150" width="11" height="11" rx="2" fill="#006d32" data-date="2025-08-28" data-level="2"/>
  <rect x="114" y="164" width="11" height="11" rx="2" fill="#161b22" data-date="2025-08-29" data-level="0"/>
  <rect x="114" y="178" width="11" height="11" rx="2" fill="#161b22" data-date="2025-08-30" data-level="0"/>
  <rect x="128" y="94" width="11" height="11" rx="2" fill="#161b22" data-date="2025-08-31" data-level="0"/>
  <rect x="128" y="108" width="11" height="11" rx="2" fill="#161b22" data-date="2025-09-01" data-level="0"/>
  <rect x="128" y="122" width="11" height="11" rx="2" fill="#161b22" data-date="2025-09-02" data-level="0"/>
  <rect x="128" y="136" width="11" height="11" rx="2" fill="#161b22" data-date="2025-09-03" data-level="0"/>
  <rect x="128" y="150" width="11" height="11" rx="2" fill="#006d32" data-date="2025-09-04" data-level="2"/>
  <rect x="128" y="164" width="11" height="11" rx="2" fill="#26a641" data-date="2025-09-05" data-level="3"/>
  <rect x="128" y="178" width="11" height="11" rx="2" fill="#39d353" data-date="2025-09-06" data-level="4"/>
  <rect x="142" y="94" width="11" height="11" rx="2" fill="#39d353" data-date="2025-09-07" data-level="4"/>
  <rect x="142" y="108" width="11" height="11" rx="2" fill="#26a641" data-date="2025-09-08" data-level="3"/>
  <rect x="142" y="122" width="11" height="11" rx="2" fill="#39d353" data-date="2025-09-09" data-level="4"/>
  <rect x="142" y="136" width="11" height="11" rx="2" fill="#26a641" data-date="2025-09-10" data-level="3"/>
  <rect x="142" y="150" width="11" height="11" rx="2" fill="#39d353" data-date="2025-09-11" data-level="4"/>
  <rect x="142" y="164" width="11" height="11" rx="2" fill="#26a641" data-date="2025-09-12" data-level="3"/>
  <rect x="142" y="178" width="11" height="11" rx="2" fill="#006d32" data-date="2025-09-13" data-level="2"/>
  <rect x="156" y="94" width="11" height="11" rx="2" fill="#161b22" data-date="2025-09-14" data-level="0"/>
  <rect x="156" y="108" width="11" height="11" rx="2" fill="#006d32" data-date="2025-09-15" data-level="2"/>
  <rect x="156" y="122" width="11" height="11" rx="2" fill="#161b22" data-date="2025-09-16" data-level="0"/>
  <rect x="156" y="136" width="11" height="11" rx="2" fill="#0e4429" data-date="2025-09-17" data-level="1"/>
  <rect x="156" y="150" width="11" height="11" rx="2" fill="#161b22" data-date="2025-09-18" data-level="0"/>
  <rect x="156" y="164" width="11" height="11" rx="2" fill="#0e4429" data-date="2025-09-19" data-level="1"/>
  <rect x="156" y="178" width="11" height="11" rx="2" fill="#161b22" data-date="2025-09-20" data-level="0"/>
  <rect x="170" y="94" width="11" height="11" rx="2" fill="#161b22" data-date="2025-09-21" data-level="0"/>
  <rect x="170" y="108" width="11" height="11" rx="2" fill="#0e4429" data-date="2025-09-22" data-level="1"/>
  <rect x="170" y="122" width="11" height="11" rx="2" fill="#26a641" data-date="2025-09-23" data-level="3"/>
  <rect x="170" y="136" width="11" height="11" rx="2" fill="#39d353" data-date="2025-09-24" data-level="4"/>
  <rect x="170" y="150" width="11" height="11" rx="2" fill="#0e4429" data-date="2025-09-25" data-level="1"/>
  <rect x="170" y="164" width="11" height="11" rx="2" fill="#161b22" data-date="2025-09-26" data-level="0"/>
  <rect x="170" y="178" width="11" height="11" rx="2" fill="#161b22" data-date="2025-09-27" data-level="0"/>
  <rect x="184" y="94" width="11" height="11" rx="2" fill="#161b22" data-date="2025-09-28" data-level="0"/>
  <rect x="184" y="108" width="11" height="11" rx="2" fill="#161b22" data-date="2025-09-29" data-level="0"/>
  <rect x="184" y="122" width="11" height="11" rx="2" fill="#006d32" data-date="2025-09-30" data-level="2"/>
  <rect x="184" y="136" width="11" height="11" rx="2" fill="#161b22" data-date="2025-10-01" data-level="0"/>
  <rect x="184" y="150" width="11" height="11" rx="2" fill="#161b22" data-date="2025-10-02" data-level="0"/>
  <rect x="184" y="164" width="11" height="11" rx="2" fill="#161b22" data-date="2025-10-03" data-level="0"/>
  <rect x="184" y="178" width="11" height="11" rx="2" fill="#161b22" data-date="2025-10-04" data-level="0"/>
  <rect x="198" y="94" width="11" height="11" rx="2" fill="#161b22" data-date="2025-10-05" data-level="0"/>
  <rect x="198" y="108" width="11" height="11" rx="2" fill="#0e4429" data-date="2025-10-06" data-level="1"/>
  <rect x="198" y="122" width="11" height="11" rx="2" fill="#006d32" data-date="2025-10-07" data-level="2"/>
  <rect x="198" y="136" width="11" height="11" rx="2" fill="#161b22" data-date="2025-10-08" data-level="0"/>
  <rect x="198" y="150" width="11" height="11" rx="2" fill="#161b22" data-date="2025-10-09" data-level="0"/>
  <rect x="198" y="164" width="11" height="11" rx="2" fill="#161b22" data-date="2025-10-10" data-level="0"/>
  <rect x="198" y="178" width="11" height="11" rx="2" fill="#161b22" data-date="2025-10-11" data-level="0"/>
  <rect x="212" y="94" width="11" height="11" rx="2" fill="#161b22" data-date="2025-10-12" data-level="0"/>
  <rect x="212" y="108" width="11" height="11" rx="2" fill="#0e4429" data-date="2025-10-13" data-level="1"/>
  <rect x="212" y="122" width="11" height="11" rx="2" fill="#0e4429" data-date="2025-10-14" data-level="1"/>
  <rect x="212" y="136" width="11" height="11" rx="2" fill="#161b22" data-date="2025-10-15" data-level="0"/>
  <rect x="212" y="150" width="11" height="11" rx="2" fill="#161b22" data-date="2025-10-16" data-level="0"/>
  <rect x="212" y="164" width="11" height="11" rx="2" fill="#161b22" data-date="2025-10-17" data-level="0"/>
  <rect x="212" y="178" width="11" height="11" rx="2" fill="#161b22" data-date="2025-10-18" data-level="0"/>
  <rect x="226" y="94" width="11" height="11" rx="2" fill="#161b22" data-date="2025-10-19" data-level="0"/>
  <rect x="226" y="108" width="11" height="11" rx="2" fill="#161b22" data-date="2025-10-20" data-level="0"/>
  <rect x="226" y="122" width="11" height="11" rx="2" fill="#161b22" data-date="2025-10-21" data-level="0"/>
  <rect x="226" y="136" width="11" height="11" rx="2" fill="#161b22" data-date="2025-10-22" data-level="0"/>
  <rect x="226" y="150" width="11" height="11" rx="2" fill="#161b22" data-date="2025-10-23" data-level="0"/>
  <rect x="226" y="164" width="11" height="11" rx="2" fill="#0e4429" data-date="2025-10-24" data-level="1"/>
  <rect x="226" y="178" width="11" height="11" rx="2" fill="#161b22" data-date="2025-10-25" data-level="0"/>
  <rect x="240" y="94" width="11" height="11" rx="2" fill="#161b22" data-date="2025-10-26" data-level="0"/>
  <rect x="240" y="108" width="11" height="11" rx="2" fill="#161b22" data-date="2025-10-27" data-level="0"/>
  <rect x="240" y="122" width="11" height="11" rx="2" fill="#161b22" data-date="2025-10-28" data-level="0"/>
  <rect x="240" y="136" width="11" height="11" rx="2" fill="#161b22" data-date="2025-10-29" data-level="0"/>
  <rect x="240" y="150" width="11" height="11" rx="2" fill="#161b22" data-date="2025-10-30" data-level="0"/>
  <rect x="240" y="164" width="11" height="11" rx="2" fill="#161b22" data-date="2025-10-31" data-level="0"/>
  <rect x="240" y="178" width="11" height="11" rx="2" fill="#161b22" data-date="2025-11-01" data-level="0"/>
  <rect x="254" y="94" width="11" height="11" rx="2" fill="#161b22" data-date="2025-11-02" data-level="0"/>
  <rect x="254" y="108" width="11" height="11" rx="2" fill="#0e4429" data-date="2025-11-03" data-level="1"/>
  <rect x="254" y="122" width="11" height="11" rx="2" fill="#006d32" data-date="2025-11-04" data-level="2"/>
  <rect x="254" y="136" width="11" height="11" rx="2" fill="#161b22" data-date="2025-11-05" data-level="0"/>
  <rect x="254" y="150" width="11" height="11" rx="2" fill="#26a641" data-date="2025-11-06" data-level="3"/>
  <rect x="254" y="164" width="11" height="11" rx="2" fill="#0e4429" data-date="2025-11-07" data-level="1"/>
  <rect x="254" y="178" width="11" height="11" rx="2" fill="#161b22" data-date="2025-11-08" data-level="0"/>
  <rect x="268" y="94" width="11" height="11" rx="2" fill="#161b22" data-date="2025-11-09" data-level="0"/>
  <rect x="268" y="108" width="11" height="11" rx="2" fill="#26a641" data-date="2025-11-10" data-level="3"/>
  <rect x="268" y="122" width="11" height="11" rx="2" fill="#0e4429" data-date="2025-11-11" data-level="1"/>
  <rect x="268" y="136" width="11" height="11" rx="2" fill="#161b22" data-date="2025-11-12" data-level="0"/>
  <rect x="268" y="150" width="11" height="11" rx="2" fill="#26a641" data-date="2025-11-13" data-level="3"/>
  <rect x="268" y="164" width="11" height="11" rx="2" fill="#0e4429" data-date="2025-11-14" data-level="1"/>
  <rect x="268" y="178" width="11" height="11" rx="2" fill="#161b22" data-date="2025-11-15" data-level="0"/>
  <rect x="282" y="94" width="11" height="11" rx="2" fill="#161b22" data-date="2025-11-16" data-level="0"/>
  <rect x="282" y="108" width="11" height="11" rx="2" fill="#161b22" data-date="2025-11-17" data-level="0"/>
  <rect x="282" y="122" width="11" height="11" rx="2" fill="#006d32" data-date="2025-11-18" data-level="2"/>
  <rect x="282" y="136" width="11" height="11" rx="2" fill="#161b22" data-date="2025-11-19" data-level="0"/>
  <rect x="282" y="150" width="11" height="11" rx="2" fill="#161b22" data-date="2025-11-20" data-level="0"/>
  <rect x="282" y="164" width="11" height="11" rx="2" fill="#006d32" data-date="2025-11-21" data-level="2"/>
  <rect x="282" y="178" width="11" height="11" rx="2" fill="#161b22" data-date="2025-11-22" data-level="0"/>
  <rect x="296" y="94" width="11" height="11" rx="2" fill="#161b22" data-date="2025-11-23" data-level="0"/>
  <rect x="296" y="108" width="11" height="11" rx="2" fill="#006d32" data-date="2025-11-24" data-level="2"/>
  <rect x="296" y="122" width="11" height="11" rx="2" fill="#0e4429" data-date="2025-11-25" data-level="1"/>
  <rect x="296" y="136" width="11" height="11" rx="2" fill="#006d32" data-date="2025-11-26" data-level="2"/>
  <rect x="296" y="150" width="11" height="11" rx="2" fill="#161b22" data-date="2025-11-27" data-level="0"/>
  <rect x="296" y="164" width="11" height="11" rx="2" fill="#006d32" data-date="2025-11-28" data-level="2"/>
  <rect x="296" y="178" width="11" height="11" rx="2" fill="#161b22" data-date="2025-11-29" data-level="0"/>
  <rect x="310" y="94" width="11" height="11" rx="2" fill="#161b22" data-date="2025-11-30" data-level="0"/>
  <rect x="310" y="108" width="11" height="11" rx="2" fill="#161b22" data-date="2025-12-01" data-level="0"/>
  <rect x="310" y="122" width="11" height="11" rx="2" fill="#161b22" data-date="2025-12-02" data-level="0"/>
  <rect x="310" y="136" width="11" height="11" rx="2" fill="#006d32" data-date="2025-12-03" data-level="2"/>
  <rect x="310" y="150" width="11" height="11" rx="2" fill="#006d32" data-date="2025-12-04" data-level="2"/>
  <rect x="310" y="164" width="11" height="11" rx="2" fill="#161b22" data-date="2025-12-05" data-level="0"/>
  <rect x="310" y="178" width="11" height="11" rx="2" fill="#161b22" data-date="2025-12-06" data-level="0"/>
  <rect x="324" y="94" width="11" height="11" rx="2" fill="#161b22" data-date="2025-12-07" data-level="0"/>
  <rect x="324" y="108" width="11" height="11" rx="2" fill="#0e4429" data-date="2025-12-08" data-level="1"/>
  <rect x="324" y="122" width="11" height="11" rx="2" fill="#161b22" data-date="2025-12-09" data-level="0"/>
  <rect x="324" y="136" width="11" height="11" rx="2" fill="#161b22" data-date="2025-12-10" data-level="0"/>
  <rect x="324" y="150" width="11" height="11" rx="2" fill="#006d32" data-date="2025-12-11" data-level="2"/>
  <rect x="324" y="164" width="11" height="11" rx="2" fill="#39d353" data-date="2025-12-12" data-level="4"/>
  <rect x="324" y="178" width="11" height="11" rx="2" fill="#006d32" data-date="2025-12-13" data-level="2"/>
  <rect x="338" y="94" width="11" height="11" rx="2" fill="#161b22" data-date="2025-12-14" data-level="0"/>
  <rect x="338" y="108" width="11" height="11" rx="2" fill="#161b22" data-date="2025-12-15" data-level="0"/>
  <rect x="338" y="122" width="11" height="11" rx="2" fill="#161b22" data-date="2025-12-16" data-level="0"/>
  <rect x="338" y="136" width="11" height="11" rx="2" fill="#0e4429" data-date="2025-12-17" data-level="1"/>
  <rect x="338" y="150" width="11" height="11" rx="2" fill="#161b22" data-date="2025-12-18" data-level="0"/>
  <rect x="338" y="164" width="11" height="11" rx="2" fill="#161b22" data-date="2025-12-19" data-level="0"/>
  <rect x="338" y="178" width="11" height="11" rx="2" fill="#161b22" data-date="2025-12-20" data-level="0"/>
  <rect x="352" y="94" width="11" height="11" rx="2" fill="#26a641" data-date="2025-12-21" data-level="3"/>
  <rect x="352" y="108" width="11" height="11" rx="2" fill="#0e4429" data-date="2025-12-22" data-level="1"/>
  <rect x="352" y="122" width="11" height="11" rx="2" fill="#26a641" data-date="2025-12-23" data-level="3"/>
  <rect x="352" y="136" width="11" height="11" rx="2" fill="#006d32" data-date="2025-12-24" data-level="2"/>
  <rect x="352" y="150" width="11" height="11" rx="2" fill="#161b22" data-date="2025-12-25" data-level="0"/>
  <rect x="352" y="164" width="11" height="11" rx="2" fill="#161b22" data-date="2025-12-26" data-level="0"/>
  <rect x="352" y="178" width="11" height="11" rx="2" fill="#161b22" data-date="2025-12-27" data-level="0"/>
  <rect x="366" y="94" width="11" height="11" rx="2" fill="#161b22" data-date="2025-12-28" data-level="0"/>
  <rect x="366" y="108" width="11" height="11" rx="2" fill="#161b22" data-date="2025-12-29" data-level="0"/>
  <rect x="366" y="122" width="11" height="11" rx="2" fill="#161b22" data-date="2025-12-30" data-level="0"/>
  <rect x="366" y="136" width="11" height="11" rx="2" fill="#161b22" data-date="2025-12-31" data-level="0"/>
  <rect x="366" y="150" width="11" height="11" rx="2" fill="#161b22" data-date="2026-01-01" data-level="0"/>
  <rect x="366" y="164" width="11" height="11" rx="2" fill="#161b22" data-date="2026-01-02" data-level="0"/>
  <rect x="366" y="178" width="11" height="11" rx="2" fill="#161b22" data-date="2026-01-03" data-level="0"/>
  <rect x="380" y="94" width="11" height="11" rx="2" fill="#161b22" data-date="2026-01-04" data-level="0"/>
  <rect x="380" y="108" width="11" height="11" rx="2" fill="#26a641" data-date="2026-01-05" data-level="3"/>
  <rect x="380" y="122" width="11" height="11" rx="2" fill="#39d353" data-date="2026-01-06" data-level="4"/>
  <rect x="380" y="136" width="11" height="11" rx="2" fill="#39d353" data-date="2026-01-07" data-level="4"/>
  <rect x="380" y="150" width="11" height="11" rx="2" fill="#39d353" data-date="2026-01-08" data-level="4"/>
  <rect x="380" y="164" width="11" height="11" rx="2" fill="#26a641" data-date="2026-01-09" data-level="3"/>
  <rect x="380" y="178" width="11" height="11" rx="2" fill="#161b22" data-date="2026-01-10" data-level="0"/>
  <rect x="394" y="94" width="11" height="11" rx="2" fill="#161b22" data-date="2026-01-11" data-level="0"/>
  <rect x="394" y="108" width="11" height="11" rx="2" fill="#161b22" data-date="2026-01-12" data-level="0"/>
  <rect x="394" y="122" width="11" height="11" rx="2" fill="#39d353" data-date="2026-01-13" data-level="4"/>
  <rect x="394" y="136" width="11" height="11" rx="2" fill="#161b22" data-date="2026-01-14" data-level="0"/>
  <rect x="394" y="150" width="11" height="11" rx="2" fill="#39d353" data-date="2026-01-15" data-level="4"/>
  <rect x="394" y="164" width="11" height="11" rx="2" fill="#006d32" data-date="2026-01-16" data-level="2"/>
  <rect x="394" y="178" width="11" height="11" rx="2" fill="#161b22" data-date="2026-01-17" data-level="0"/>
  <rect x="408" y="94" width="11" height="11" rx="2" fill="#161b22" data-date="2026-01-18" data-level="0"/>
  <rect x="408" y="108" width="11" height="11" rx="2" fill="#26a641" data-date="2026-01-19" data-level="3"/>
  <rect x="408" y="122" width="11" height="11" rx="2" fill="#161b22" data-date="2026-01-20" data-level="0"/>
  <rect x="408" y="136" width="11" height="11" rx="2" fill="#161b22" data-date="2026-01-21" data-level="0"/>
  <rect x="408" y="150" width="11" height="11" rx="2" fill="#26a641" data-date="2026-01-22" data-level="3"/>
  <rect x="408" y="164" width="11" height="11" rx="2" fill="#006d32" data-date="2026-01-23" data-level="2"/>
  <rect x="408" y="178" width="11" height="11" rx="2" fill="#161b22" data-date="2026-01-24" data-level="0"/>
  <rect x="422" y="94" width="11" height="11" rx="2" fill="#0e4429" data-date="2026-01-25" data-level="1"/>
  <rect x="422" y="108" width="11" height="11" rx="2" fill="#161b22" data-date="2026-01-26" data-level="0"/>
  <rect x="422" y="122" width="11" height="11" rx="2" fill="#161b22" data-date="2026-01-27" data-level="0"/>
  <rect x="422" y="136" width="11" height="11" rx="2" fill="#161b22" data-date="2026-01-28" data-level="0"/>
  <rect x="422" y="150" width="11" height="11" rx="2" fill="#161b22" data-date="2026-01-29" data-level="0"/>
  <rect x="422" y="164" width="11" height="11" rx="2" fill="#161b22" data-date="2026-01-30" data-level="0"/>
  <rect x="422" y="178" width="11" height="11" rx="2" fill="#161b22" data-date="2026-01-31" data-level="0"/>
  <rect x="436" y="94" width="11" height="11" rx="2" fill="#161b22" data-date="2026-02-01" data-level="0"/>
  <rect x="436" y="108" width="11" height="11" rx="2" fill="#161b22" data-date="2026-02-02" data-level="0"/>
  <rect x="436" y="122" width="11" height="11" rx="2" fill="#161b22" data-date="2026-02-03" data-level="0"/>
  <rect x="436" y="136" width="11" height="11" rx="2" fill="#161b22" data-date="2026-02-04" data-level="0"/>
  <rect x="436" y="150" width="11" height="11" rx="2" fill="#161b22" data-date="2026-02-05" data-level="0"/>
  <rect x="436" y="164" width="11" height="11" rx="2" fill="#161b22" data-date="2026-02-06" data-level="0"/>
  <rect x="436" y="178" width="11" height="11" rx="2" fill="#161b22" data-date="2026-02-07" data-level="0"/>
  <rect x="450" y="94" width="11" height="11" rx="2" fill="#161b22" data-date="2026-02-08" data-level="0"/>
  <rect x="450" y="108" width="11" height="11" rx="2" fill="#161b22" data-date="2026-02-09" data-level="0"/>
  <rect x="450" y="122" width="11" height="11" rx="2" fill="#161b22" data-date="2026-02-10" data-level="0"/>
  <rect x="450" y="136" width="11" height="11" rx="2" fill="#161b22" data-date="2026-02-11" data-level="0"/>
  <rect x="450" y="150" width="11" height="11" rx="2" fill="#161b22" data-date="2026-02-12" data-level="0"/>
  <rect x="450" y="164" width="11" height="11" rx="2" fill="#161b22" data-date="2026-02-13" data-level="0"/>
  <rect x="450" y="178" width="11" height="11" rx="2" fill="#161b22" data-date="2026-02-14" data-level="0"/>
  <rect x="464" y="94" width="11" height="11" rx="2" fill="#161b22" data-date="2026-02-15" data-level="0"/>
  <rect x="464" y="108" width="11" height="11" rx="2" fill="#161b22" data-date="2026-02-16" data-level="0"/>
  <rect x="464" y="122" width="11" height="11" rx="2" fill="#161b22" data-date="2026-02-17" data-level="0"/>
  <rect x="464" y="136" width="11" height="11" rx="2" fill="#0e4429" data-date="2026-02-18" data-level="1"/>
  <rect x="464" y="150" width="11" height="11" rx="2" fill="#161b22" data-date="2026-02-19" data-level="0"/>
  <rect x="464" y="164" width="11" height="11" rx="2" fill="#161b22" data-date="2026-02-20" data-level="0"/>
  <rect x="464" y="178" width="11" height="11" rx="2" fill="#161b22" data-date="2026-02-21" data-level="0"/>
  <rect x="478" y="94" width="11" height="11" rx="2" fill="#161b22" data-date="2026-02-22" data-level="0"/>
  <rect x="478" y="108" width="11" height="11" rx="2" fill="#161b22" data-date="2026-02-23" data-level="0"/>
  <rect x="478" y="122" width="11" height="11" rx="2" fill="#161b22" data-date="2026-02-24" data-level="0"/>
  <rect x="478" y="136" width="11" height="11" rx="2" fill="#161b22" data-date="2026-02-25" data-level="0"/>
  <rect x="478" y="150" width="11" height="11" rx="2" fill="#161b22" data-date="2026-02-26" data-level="0"/>
  <rect x="478" y="164" width="11" height="11" rx="2" fill="#161b22" data-date="2026-02-27" data-level="0"/>
  <rect x="478" y="178" width="11" height="11" rx="2" fill="#161b22" data-date="2026-02-28" data-level="0"/>
  <rect x="492" y="94" width="11" height="11" rx="2" fill="#161b22" data-date="2026-03-01" data-level="0"/>
  <rect x="492" y="108" width="11" height="11" rx="2" fill="#161b22" data-date="2026-03-02" data-level="0"/>
  <rect x="492" y="122" width="11" height="11" rx="2" fill="#161b22" data-date="2026-03-03" data-level="0"/>
  <rect x="492" y="136" width="11" height="11" rx="2" fill="#161b22" data-date="2026-03-04" data-level="0"/>
  <rect x="492" y="150" width="11" height="11" rx="2" fill="#161b22" data-date="2026-03-05" data-level="0"/>
  <rect x="492" y="164" width="11" height="11" rx="2" fill="#161b22" data-date="2026-03-06" data-level="0"/>
  <rect x="492" y="178" width="11" height="11" rx="2" fill="#161b22" data-date="2026-03-07" data-level="0"/>
  <rect x="506" y="94" width="11" height="11" rx="2" fill="#161b22" data-date="2026-03-08" data-level="0"/>
  <rect x="506" y="108" width="11" height="11" rx="2" fill="#161b22" data-date="2026-03-09" data-level="0"/>
  <rect x="506" y="122" width="11" height="11" rx="2" fill="#161b22" data-date="2026-03-10" data-level="0"/>
  <rect x="506" y="136" width="11" height="11" rx="2" fill="#161b22" data-date="2026-03-11" data-level="0"/>
  <rect x="506" y="150" width="11" height="11" rx="2" fill="#161b22" data-date="2026-03-12" data-level="0"/>
  <rect x="506" y="164" width="11" height="11" rx="2" fill="#161b22" data-date="2026-03-13" data-level="0"/>
  <rect x="506" y="178" width="11" height="11" rx="2" fill="#161b22" data-date="2026-03-14" data-level="0"/>
  <rect x="520" y="94" width="11" height="11" rx="2" fill="#161b22" data-date="2026-03-15" data-level="0"/>
  <rect x="520" y="108" width="11" height="11" rx="2" fill="#161b22" data-date="2026-03-16" data-level="0"/>
  <rect x="520" y="122" width="11" height="11" rx="2" fill="#161b22" data-date="2026-03-17" data-level="0"/>
  <rect x="520" y="136" width="11" height="11" rx="2" fill="#161b22" data-date="2026-03-18" data-level="0"/>
  <rect x="520" y="150" width="11" height="11" rx="2" fill="#161b22" data-date="2026-03-19" data-level="0"/>
  <rect x="520" y="164" width="11" height="11" rx="2" fill="#161b22" data-date="2026-03-20" data-level="0"/>
  <rect x="520" y="178" width="11" height="11" rx="2" fill="#161b22" data-date="2026-03-21" data-level="0"/>
  <rect x="534" y="94" width="11" height="11" rx="2" fill="#161b22" data-date="2026-03-22" data-level="0"/>
  <rect x="534" y="108" width="11" height="11" rx="2" fill="#161b22" data-date="2026-03-23" data-level="0"/>
  <rect x="534" y="122" width="11" height="11" rx="2" fill="#161b22" data-date="2026-03-24" data-level="0"/>
  <rect x="534" y="136" width="11" height="11" rx="2" fill="#161b22" data-date="2026-03-25" data-level="0"/>
  <rect x="534" y="150" width="11" height="11" rx="2" fill="#161b22" data-date="2026-03-26" data-level="0"/>
  <rect x="534" y="164" width="11" height="11" rx="2" fill="#161b22" data-date="2026-03-27" data-level="0"/>
  <rect x="534" y="178" width="11" height="11" rx="2" fill="#161b22" data-date="2026-03-28" data-level="0"/>
  <rect x="548" y="94" width="11" height="11" rx="2" fill="#0e4429" data-date="2026-03-29" data-level="1"/>
  <rect x="548" y="108" width="11" height="11" rx="2" fill="#161b22" data-date="2026-03-30" data-level="0"/>
  <rect x="548" y="122" width="11" height="11" rx="2" fill="#161b22" data-date="2026-03-31" data-level="0"/>
  <rect x="548" y="136" width="11" height="11" rx="2" fill="#161b22" data-date="2026-04-01" data-level="0"/>
  <rect x="548" y="150" width="11" height="11" rx="2" fill="#161b22" data-date="2026-04-02" data-level="0"/>
  <rect x="548" y="164" width="11" height="11" rx="2" fill="#161b22" data-date="2026-04-03" data-level="0"/>
  <rect x="548" y="178" width="11" height="11" rx="2" fill="#161b22" data-date="2026-04-04" data-level="0"/>
  <rect x="562" y="94" width="11" height="11" rx="2" fill="#161b22" data-date="2026-04-05" data-level="0"/>
  <rect x="562" y="108" width="11" height="11" rx="2" fill="#26a641" data-date="2026-04-06" data-level="3"/>
  <rect x="562" y="122" width="11" height="11" rx="2" fill="#26a641" data-date="2026-04-07" data-level="3"/>
  <rect x="562" y="136" width="11" height="11" rx="2" fill="#161b22" data-date="2026-04-08" data-level="0"/>
  <rect x="562" y="150" width="11" height="11" rx="2" fill="#161b22" data-date="2026-04-09" data-level="0"/>
  <rect x="562" y="164" width="11" height="11" rx="2" fill="#26a641" data-date="2026-04-10" data-level="3"/>
  <rect x="562" y="178" width="11" height="11" rx="2" fill="#161b22" data-date="2026-04-11" data-level="0"/>
  <rect x="576" y="94" width="11" height="11" rx="2" fill="#26a641" data-date="2026-04-12" data-level="3"/>
  <rect x="576" y="108" width="11" height="11" rx="2" fill="#39d353" data-date="2026-04-13" data-level="4"/>
  <rect x="576" y="122" width="11" height="11" rx="2" fill="#26a641" data-date="2026-04-14" data-level="3"/>
  <rect x="576" y="136" width="11" height="11" rx="2" fill="#39d353" data-date="2026-04-15" data-level="4"/>
  <rect x="576" y="150" width="11" height="11" rx="2" fill="#39d353" data-date="2026-04-16" data-level="4"/>
  <rect x="576" y="164" width="11" height="11" rx="2" fill="#161b22" data-date="2026-04-17" data-level="0"/>
  <rect x="576" y="178" width="11" height="11" rx="2" fill="#161b22" data-date="2026-04-18" data-level="0"/>
  <rect x="590" y="94" width="11" height="11" rx="2" fill="#161b22" data-date="2026-04-19" data-level="0"/>
  <rect x="590" y="108" width="11" height="11" rx="2" fill="#161b22" data-date="2026-04-20" data-level="0"/>
  <rect x="590" y="122" width="11" height="11" rx="2" fill="#006d32" data-date="2026-04-21" data-level="2"/>
  <rect x="590" y="136" width="11" height="11" rx="2" fill="#26a641" data-date="2026-04-22" data-level="3"/>
  <rect x="590" y="150" width="11" height="11" rx="2" fill="#26a641" data-date="2026-04-23" data-level="3"/>
  <rect x="590" y="164" width="11" height="11" rx="2" fill="#39d353" data-date="2026-04-24" data-level="4"/>
  <rect x="590" y="178" width="11" height="11" rx="2" fill="#26a641" data-date="2026-04-25" data-level="3"/>
  <rect x="604" y="94" width="11" height="11" rx="2" fill="#161b22" data-date="2026-04-26" data-level="0"/>
  <rect x="604" y="108" width="11" height="11" rx="2" fill="#161b22" data-date="2026-04-27" data-level="0"/>
  <rect x="604" y="122" width="11" height="11" rx="2" fill="#161b22" data-date="2026-04-28" data-level="0"/>
  <rect x="604" y="136" width="11" height="11" rx="2" fill="#161b22" data-date="2026-04-29" data-level="0"/>
  <rect x="604" y="150" width="11" height="11" rx="2" fill="#161b22" data-date="2026-04-30" data-level="0"/>
  <rect x="604" y="164" width="11" height="11" rx="2" fill="#006d32" data-date="2026-05-01" data-level="2"/>
  <rect x="604" y="178" width="11" height="11" rx="2" fill="#161b22" data-date="2026-05-02" data-level="0"/>
  <rect x="618" y="94" width="11" height="11" rx="2" fill="#161b22" data-date="2026-05-03" data-level="0"/>
  <rect x="618" y="108" width="11" height="11" rx="2" fill="#161b22" data-date="2026-05-04" data-level="0"/>
  <rect x="618" y="122" width="11" height="11" rx="2" fill="#161b22" data-date="2026-05-05" data-level="0"/>
  <rect x="618" y="136" width="11" height="11" rx="2" fill="#161b22" data-date="2026-05-06" data-level="0"/>
  <rect x="618" y="150" width="11" height="11" rx="2" fill="#161b22" data-date="2026-05-07" data-level="0"/>
  <rect x="618" y="164" width="11" height="11" rx="2" fill="#39d353" data-date="2026-05-08" data-level="4"/>
  <rect x="618" y="178" width="11" height="11" rx="2" fill="#161b22" data-date="2026-05-09" data-level="0"/>
  <rect x="632" y="94" width="11" height="11" rx="2" fill="#161b22" data-date="2026-05-10" data-level="0"/>
  <rect x="632" y="108" width="11" height="11" rx="2" fill="#26a641" data-date="2026-05-11" data-level="3"/>
  <rect x="632" y="122" width="11" height="11" rx="2" fill="#161b22" data-date="2026-05-12" data-level="0"/>
  <rect x="632" y="136" width="11" height="11" rx="2" fill="#26a641" data-date="2026-05-13" data-level="3"/>
  <rect x="632" y="150" width="11" height="11" rx="2" fill="#161b22" data-date="2026-05-14" data-level="0"/>
  <rect x="632" y="164" width="11" height="11" rx="2" fill="#161b22" data-date="2026-05-15" data-level="0"/>
  <rect x="632" y="178" width="11" height="11" rx="2" fill="#161b22" data-date="2026-05-16" data-level="0"/>
  <rect x="646" y="94" width="11" height="11" rx="2" fill="#161b22" data-date="2026-05-17" data-level="0"/>
  <rect x="646" y="108" width="11" height="11" rx="2" fill="#006d32" data-date="2026-05-18" data-level="2"/>
  <rect x="646" y="122" width="11" height="11" rx="2" fill="#161b22" data-date="2026-05-19" data-level="0"/>
  <rect x="646" y="136" width="11" height="11" rx="2" fill="#161b22" data-date="2026-05-20" data-level="0"/>
  <rect x="646" y="150" width="11" height="11" rx="2" fill="#161b22" data-date="2026-05-21" data-level="0"/>
  <rect x="646" y="164" width="11" height="11" rx="2" fill="#26a641" data-date="2026-05-22" data-level="3"/>
  <rect x="646" y="178" width="11" height="11" rx="2" fill="#161b22" data-date="2026-05-23" data-level="0"/>
  <rect x="660" y="94" width="11" height="11" rx="2" fill="#161b22" data-date="2026-05-24" data-level="0"/>
  <rect x="660" y="108" width="11" height="11" rx="2" fill="#161b22" data-date="2026-05-25" data-level="0"/>
  <rect x="660" y="122" width="11" height="11" rx="2" fill="#161b22" data-date="2026-05-26" data-level="0"/>
  <rect x="660" y="136" width="11" height="11" rx="2" fill="#161b22" data-date="2026-05-27" data-level="0"/>
  <rect x="660" y="150" width="11" height="11" rx="2" fill="#161b22" data-date="2026-05-28" data-level="0"/>
  <rect x="660" y="164" width="11" height="11" rx="2" fill="#161b22" data-date="2026-05-29" data-level="0"/>
  <rect x="660" y="178" width="11" height="11" rx="2" fill="#161b22" data-date="2026-05-30" data-level="0"/>
  <rect x="674" y="94" width="11" height="11" rx="2" fill="#161b22" data-date="2026-05-31" data-level="0"/>
  <rect x="674" y="108" width="11" height="11" rx="2" fill="#161b22" data-date="2026-06-01" data-level="0"/>
  <rect x="674" y="122" width="11" height="11" rx="2" fill="#39d353" data-date="2026-06-02" data-level="4"/>
  <rect x="674" y="136" width="11" height="11" rx="2" fill="#161b22" data-date="2026-06-03" data-level="0"/>
  <rect x="674" y="150" width="11" height="11" rx="2" fill="#161b22" data-date="2026-06-04" data-level="0"/>
  <rect x="674" y="164" width="11" height="11" rx="2" fill="#161b22" data-date="2026-06-05" data-level="0"/>
  <rect x="674" y="178" width="11" height="11" rx="2" fill="#161b22" data-date="2026-06-06" data-level="0"/>
  <rect x="688" y="94" width="11" height="11" rx="2" fill="#161b22" data-date="2026-06-07" data-level="0"/>
  <rect x="688" y="108" width="11" height="11" rx="2" fill="#39d353" data-date="2026-06-08" data-level="4"/>
  <rect x="688" y="122" width="11" height="11" rx="2" fill="#39d353" data-date="2026-06-09" data-level="4"/>
  <rect x="688" y="136" width="11" height="11" rx="2" fill="#39d353" data-date="2026-06-10" data-level="4"/>
  <rect x="688" y="150" width="11" height="11" rx="2" fill="#39d353" data-date="2026-06-11" data-level="4"/>
  <rect x="688" y="164" width="11" height="11" rx="2" fill="#39d353" data-date="2026-06-12" data-level="4"/>
  <rect x="688" y="178" width="11" height="11" rx="2" fill="#39d353" data-date="2026-06-13" data-level="4"/>
  <rect x="702" y="94" width="11" height="11" rx="2" fill="#39d353" data-date="2026-06-14" data-level="4"/>
  <rect x="702" y="108" width="11" height="11" rx="2" fill="#39d353" data-date="2026-06-15" data-level="4"/>
  <rect x="702" y="122" width="11" height="11" rx="2" fill="#39d353" data-date="2026-06-16" data-level="4"/>
  <rect x="702" y="136" width="11" height="11" rx="2" fill="#39d353" data-date="2026-06-17" data-level="4"/>
  <rect x="702" y="150" width="11" height="11" rx="2" fill="#39d353" data-date="2026-06-18" data-level="4"/>
  <rect x="702" y="164" width="11" height="11" rx="2" fill="#39d353" data-date="2026-06-19" data-level="4"/>
  <rect x="702" y="178" width="11" height="11" rx="2" fill="#39d353" data-date="2026-06-20" data-level="4"/>
  <rect x="716" y="94" width="11" height="11" rx="2" fill="#39d353" data-date="2026-06-21" data-level="4"/>
  <rect x="716" y="108" width="11" height="11" rx="2" fill="#39d353" data-date="2026-06-22" data-level="4"/>
  <rect x="716" y="122" width="11" height="11" rx="2" fill="#39d353" data-date="2026-06-23" data-level="4"/>
  <rect x="716" y="136" width="11" height="11" rx="2" fill="#39d353" data-date="2026-06-24" data-level="4"/>
  <rect x="716" y="150" width="11" height="11" rx="2" fill="#39d353" data-date="2026-06-25" data-level="4"/>
  <rect x="716" y="164" width="11" height="11" rx="2" fill="#39d353" data-date="2026-06-26" data-level="4"/>
  <rect x="716" y="178" width="11" height="11" rx="2" fill="#39d353" data-date="2026-06-27" data-level="4"/>
  <rect x="730" y="94" width="11" height="11" rx="2" fill="#39d353" data-date="2026-06-28" data-level="4"/>
  <rect x="730" y="108" width="11" height="11" rx="2" fill="#39d353" data-date="2026-06-29" data-level="4"/>
  <rect x="730" y="122" width="11" height="11" rx="2" fill="#39d353" data-date="2026-06-30" data-level="4"/>
  <rect x="730" y="136" width="11" height="11" rx="2" fill="#39d353" data-date="2026-07-01" data-level="4"/>
  <rect x="730" y="150" width="11" height="11" rx="2" fill="#39d353" data-date="2026-07-02" data-level="4"/>
  <rect x="730" y="164" width="11" height="11" rx="2" fill="#39d353" data-date="2026-07-03" data-level="4"/>
  <rect x="730" y="178" width="11" height="11" rx="2" fill="#39d353" data-date="2026-07-04" data-level="4"/>
  <rect x="744" y="94" width="11" height="11" rx="2" fill="#39d353" data-date="2026-07-05" data-level="4"/>
  <rect x="744" y="108" width="11" height="11" rx="2" fill="#39d353" data-date="2026-07-06" data-level="4"/>
  <rect x="744" y="122" width="11" height="11" rx="2" fill="#39d353" data-date="2026-07-07" data-level="4"/>
  <rect x="744" y="136" width="11" height="11" rx="2" fill="#39d353" data-date="2026-07-08" data-level="4"/>
  <rect x="744" y="150" width="11" height="11" rx="2" fill="#39d353" data-date="2026-07-09" data-level="4"/>
  <rect x="744" y="164" width="11" height="11" rx="2" fill="#39d353" data-date="2026-07-10" data-level="4"/>
  <rect x="744" y="178" width="11" height="11" rx="2" fill="#39d353" data-date="2026-07-11" data-level="4"/>
  <rect x="758" y="94" width="11" height="11" rx="2" fill="#39d353" data-date="2026-07-12" data-level="4"/>
  <rect x="758" y="108" width="11" height="11" rx="2" fill="#39d353" data-date="2026-07-13" data-level="4"/>
  <rect x="758" y="122" width="11" height="11" rx="2" fill="#39d353" data-date="2026-07-14" data-level="4"/>
  <text x="30" y="209">AI tokens incl. cache · updated 2026-07-14</text>
  <text x="646" y="209">Less</text>
  <rect x="672" y="200" width="11" height="11" rx="2" fill="#161b22"/>
  <rect x="686" y="200" width="11" height="11" rx="2" fill="#0e4429"/>
  <rect x="700" y="200" width="11" height="11" rx="2" fill="#006d32"/>
  <rect x="714" y="200" width="11" height="11" rx="2" fill="#26a641"/>
  <rect x="728" y="200" width="11" height="11" rx="2" fill="#39d353"/>
  <text x="743" y="209">More</text>
</svg>
